<?xml version="1.0" encoding="UTF-8" standalone="no"?>
<!-- Created with Inkscape (http://www.inkscape.org/) -->

<svg
   width="500"
   height="150"
   viewBox="0 0 132.29167 39.687498"
   version="1.1"
   id="svg1"
   inkscape:version="1.3 (0e150ed6c4, 2023-07-21)"
   sodipodi:docname="CitySavers Logo 1.svg"
   xmlns:inkscape="http://www.inkscape.org/namespaces/inkscape"
   xmlns:sodipodi="http://sodipodi.sourceforge.net/DTD/sodipodi-0.dtd"
   xmlns="http://www.w3.org/2000/svg"
   xmlns:svg="http://www.w3.org/2000/svg">
  <sodipodi:namedview
     id="namedview1"
     pagecolor="#ffffff"
     bordercolor="#000000"
     borderopacity="0.25"
     inkscape:showpageshadow="2"
     inkscape:pageopacity="0.0"
     inkscape:pagecheckerboard="0"
     inkscape:deskcolor="#d1d1d1"
     inkscape:document-units="mm"
     inkscape:zoom="1.238"
     inkscape:cx="317.04362"
     inkscape:cy="45.638126"
     inkscape:window-width="1920"
     inkscape:window-height="1009"
     inkscape:window-x="1912"
     inkscape:window-y="-8"
     inkscape:window-maximized="1"
     inkscape:current-layer="layer4" />
  <defs
     id="defs1">
    <inkscape:path-effect
       effect="fillet_chamfer"
       id="path-effect73"
       is_visible="true"
       lpeversion="1"
       nodesatellites_param="F,0,0,1,0,0,0,1 @ F,0,0,1,0,0,0,1 @ F,0,0,1,0,0,0,1 @ F,0,0,1,0,0,0,1 @ F,0,0,1,0,0,0,1 @ F,0,0,1,0,0,0,1 @ F,0,0,1,0,0,0,1 @ F,0,0,1,0,0,0,1 @ F,0,0,1,0,0,0,1 @ F,0,0,1,0,0,0,1 @ F,0,0,1,0,0,0,1 @ F,0,0,1,0,0,0,1 @ F,0,0,1,0,0,0,1 @ F,0,0,1,0,0,0,1 @ F,0,0,1,0,0,0,1 @ F,0,0,1,0,0,0,1 @ F,0,0,1,0,0,0,1 @ F,0,0,1,0,0,0,1 @ F,0,0,1,0,0,0,1 @ F,0,0,1,0,0,0,1 @ F,0,0,1,0,0,0,1 @ F,0,0,1,0,0,0,1 @ F,0,0,1,0,0,0,1 @ F,0,0,1,0,0,0,1 @ F,0,0,1,0,0,0,1 @ F,0,0,1,0,0,0,1 @ F,0,0,1,0,0,0,1 @ F,0,0,1,0,0,0,1 @ F,0,0,1,0,0,0,1 @ F,0,0,1,0,0,0,1 @ F,0,0,1,0,0,0,1 @ F,0,0,1,0,0,0,1 @ F,0,0,1,0,0,0,1 @ F,0,0,1,0,0,0,1 @ F,0,0,1,0,0,0,1 @ F,0,0,1,0,0,0,1 @ F,0,0,1,0,1.4875104,0,1 @ F,0,1,1,0,1.4875104,0,1 @ F,0,0,1,0,0,0,1 @ F,0,0,1,0,0,0,1 @ F,0,0,1,0,0,0,1 @ F,0,0,1,0,0,0,1 @ F,0,0,1,0,0,0,1 @ F,0,0,1,0,0,0,1 @ F,0,0,1,0,0,0,1 @ F,0,0,1,0,0,0,1 @ F,0,0,1,0,0,0,1 @ F,0,0,1,0,0,0,1 @ F,0,0,1,0,0,0,1 @ F,0,0,1,0,0,0,1 @ F,0,0,1,0,0,0,1 @ F,0,0,1,0,0,0,1 @ F,0,0,1,0,0,0,1 @ F,0,0,1,0,0,0,1 @ F,0,0,1,0,0,0,1 @ F,0,0,1,0,0,0,1 @ F,0,0,1,0,0,0,1 @ F,0,0,1,0,0,0,1 @ F,0,0,1,0,0,0,1 @ F,0,0,1,0,0,0,1 @ F,0,0,1,0,0,0,1 @ F,0,0,1,0,0,0,1 @ F,0,0,1,0,0,0,1 @ F,0,0,1,0,0,0,1 @ F,0,0,1,0,0,0,1 @ F,0,0,1,0,0,0,1 @ F,0,0,1,0,0,0,1 @ F,0,0,1,0,0,0,1 @ F,0,0,1,0,0,0,1 @ F,0,0,1,0,0,0,1 @ F,0,0,1,0,0,0,1 @ F,0,0,1,0,0,0,1 @ F,0,0,1,0,0,0,1 @ F,0,0,1,0,0,0,1 @ F,0,0,1,0,0,0,1 @ F,0,0,1,0,0,0,1 @ F,0,0,1,0,0,0,1 @ F,0,0,1,0,1.4143434,0,1 @ F,0,0,1,0,1.4143434,0,1 @ F,0,0,1,0,0,0,1 @ F,0,0,1,0,0,0,1 @ F,0,0,1,0,0,0,1"
       radius="0"
       unit="px"
       method="auto"
       mode="F"
       chamfer_steps="1"
       flexible="false"
       use_knot_distance="true"
       apply_no_radius="true"
       apply_with_radius="true"
       only_selected="false"
       hide_knots="false" />
    <inkscape:path-effect
       effect="fillet_chamfer"
       id="path-effect72"
       is_visible="true"
       lpeversion="1"
       nodesatellites_param="F,0,0,1,0,0,0,1 @ F,0,0,1,0,0,0,1 @ F,0,0,1,0,0,0,1 @ F,0,0,1,0,0,0,1 @ F,0,0,1,0,0,0,1 @ F,0,0,1,0,0,0,1 @ F,0,0,1,0,0,0,1 @ F,0,0,1,0,0,0,1 @ F,0,0,1,0,0,0,1 @ F,0,0,1,0,0,0,1 @ F,0,0,1,0,0,0,1 @ F,0,0,1,0,0,0,1 @ F,0,0,1,0,0,0,1 @ F,0,0,1,0,0,0,1 @ F,0,0,1,0,0,0,1 @ F,0,0,1,0,0,0,1 @ F,0,0,1,0,0,0,1 @ F,0,0,1,0,0,0,1 @ F,0,0,1,0,0,0,1 @ F,0,0,1,0,0,0,1 @ F,0,0,1,0,0,0,1 @ F,0,0,1,0,0,0,1 @ F,0,0,1,0,0,0,1 @ F,0,0,1,0,0,0,1 @ F,0,0,1,0,0,0,1 @ F,0,0,1,0,0,0,1 @ F,0,0,1,0,0,0,1 @ F,0,0,1,0,0,0,1 @ F,0,0,1,0,0,0,1 @ F,0,0,1,0,0,0,1 @ F,0,0,1,0,0,0,1 @ F,0,0,1,0,0,0,1 @ F,0,0,1,0,0,0,1 @ F,0,0,1,0,0,0,1 @ F,0,0,1,0,0,0,1 @ F,0,0,1,0,0,0,1 @ F,0,0,1,0,0,0,1 @ F,0,0,1,0,0,0,1 @ F,0,0,1,0,0,0,1 @ F,0,0,1,0,0,0,1 @ F,0,0,1,0,0,0,1 @ F,0,0,1,0,0,0,1 @ F,0,0,1,0,0,0,1 @ F,0,0,1,0,0,0,1 @ F,0,0,1,0,0,0,1 @ F,0,0,1,0,0,0,1 @ F,0,0,1,0,0,0,1 @ F,0,0,1,0,0,0,1 @ F,0,0,1,0,0,0,1 @ F,0,0,1,0,0,0,1 @ F,0,0,1,0,0,0,1 @ F,0,0,1,0,0,0,1 @ F,0,0,1,0,0,0,1 @ F,0,0,1,0,0,0,1 @ F,0,0,1,0,0,0,1 @ F,0,0,1,0,0,0,1 @ F,0,0,1,0,0,0,1 @ F,0,0,1,0,0,0,1 @ F,0,0,1,0,0,0,1 @ F,0,0,1,0,0,0,1 @ F,0,0,1,0,0,0,1 @ F,0,0,1,0,0,0,1 @ F,0,0,1,0,0,0,1 @ F,0,0,1,0,0,0,1 @ F,0,0,1,0,0,0,1 @ F,0,0,1,0,0,0,1 @ F,0,0,1,0,0,0,1 @ F,0,0,1,0,0,0,1 @ F,0,0,1,0,0,0,1 @ F,0,0,1,0,0,0,1 @ F,0,0,1,0,0,0,1 @ F,0,0,1,0,0,0,1 @ F,0,0,1,0,0,0,1 @ F,0,0,1,0,0,0,1 @ F,0,0,1,0,0,0,1 @ F,0,0,1,0,0,0,1 @ F,0,0,1,0,0,0,1 @ F,0,0,1,0,0,0,1 @ F,0,0,1,0,0,0,1 @ F,0,0,1,0,0,0,1 @ F,0,0,1,0,0,0,1 @ F,0,0,1,0,0,0,1"
       radius="0"
       unit="px"
       method="auto"
       mode="F"
       chamfer_steps="1"
       flexible="false"
       use_knot_distance="true"
       apply_no_radius="true"
       apply_with_radius="true"
       only_selected="false"
       hide_knots="false" />
    <inkscape:path-effect
       effect="fillet_chamfer"
       id="path-effect71"
       is_visible="true"
       lpeversion="1"
       nodesatellites_param="F,0,0,1,0,0,0,1 @ F,0,0,1,0,0,0,1 @ F,0,0,1,0,0,0,1 @ F,0,0,1,0,0,0,1 @ F,0,0,1,0,0,0,1 @ F,0,0,1,0,0,0,1 @ F,0,0,1,0,0,0,1 @ F,0,0,1,0,0,0,1 @ F,0,0,1,0,0,0,1 @ F,0,0,1,0,0,0,1 @ F,0,0,1,0,0,0,1 @ F,0,0,1,0,0,0,1 @ F,0,0,1,0,0,0,1 @ F,0,0,1,0,0,0,1 @ F,0,0,1,0,0,0,1 @ F,0,0,1,0,0,0,1 @ F,0,0,1,0,0,0,1 @ F,0,0,1,0,0,0,1 @ F,0,0,1,0,0,0,1 @ F,0,0,1,0,0,0,1 @ F,0,0,1,0,0,0,1 @ F,0,0,1,0,0,0,1 @ F,0,0,1,0,0,0,1 @ F,0,0,1,0,0,0,1 @ F,0,0,1,0,0,0,1 @ F,0,0,1,0,0,0,1 @ F,0,0,1,0,0,0,1 @ F,0,0,1,0,0,0,1 @ F,0,0,1,0,0,0,1 @ F,0,0,1,0,0,0,1 @ F,0,0,1,0,0,0,1 @ F,0,0,1,0,0,0,1 @ F,0,0,1,0,0,0,1 @ F,0,0,1,0,0,0,1 @ F,0,0,1,0,0,0,1 @ F,0,0,1,0,0,0,1 @ F,0,0,1,0,0,0,1 @ F,0,0,1,0,0,0,1 @ F,0,0,1,0,0,0,1 @ F,0,0,1,0,0,0,1 @ F,0,0,1,0,0,0,1 @ F,0,0,1,0,0,0,1 @ F,0,0,1,0,0,0,1 @ F,0,0,1,0,0,0,1 @ F,0,0,1,0,0,0,1 @ F,0,0,1,0,0,0,1 @ F,0,0,1,0,0,0,1 @ F,0,0,1,0,0,0,1 @ F,0,0,1,0,0,0,1 @ F,0,0,1,0,0,0,1 @ F,0,0,1,0,0,0,1 @ F,0,0,1,0,0,0,1 @ F,0,0,1,0,0,0,1 @ F,0,0,1,0,0,0,1 @ F,0,0,1,0,0,0,1 @ F,0,0,1,0,0,0,1 @ F,0,0,1,0,0,0,1 @ F,0,0,1,0,0,0,1 @ F,0,0,1,0,0,0,1 @ F,0,0,1,0,0,0,1 @ F,0,0,1,0,0,0,1 @ F,0,0,1,0,0,0,1 @ F,0,0,1,0,0,0,1 @ F,0,0,1,0,0,0,1 @ F,0,0,1,0,0,0,1 @ F,0,0,1,0,0,0,1 @ F,0,0,1,0,0,0,1 @ F,0,0,1,0,0,0,1 @ F,0,0,1,0,0,0,1 @ F,0,0,1,0,0,0,1 @ F,0,0,1,0,0,0,1 @ F,0,0,1,0,0,0,1 @ F,0,0,1,0,0,0,1 @ F,0,0,1,0,0,0,1 @ F,0,0,1,0,0,0,1 @ F,0,0,1,0,0,0,1 @ F,0,0,1,0,0,0,1 @ F,0,0,1,0,0,0,1 @ F,0,0,1,0,0,0,1 @ F,0,0,1,0,0,0,1 @ F,0,0,1,0,0,0,1 @ F,0,0,1,0,0,0,1"
       radius="0"
       unit="px"
       method="auto"
       mode="F"
       chamfer_steps="1"
       flexible="false"
       use_knot_distance="true"
       apply_no_radius="true"
       apply_with_radius="true"
       only_selected="false"
       hide_knots="false" />
    <inkscape:path-effect
       effect="fillet_chamfer"
       id="path-effect70"
       is_visible="true"
       lpeversion="1"
       nodesatellites_param="F,0,0,1,0,0,0,1 @ F,0,0,1,0,0,0,1 @ F,0,0,1,0,0,0,1 @ F,0,0,1,0,0,0,1 @ F,0,0,1,0,0,0,1 @ F,0,0,1,0,0,0,1 @ F,0,0,1,0,0,0,1 @ F,0,0,1,0,0,0,1 @ F,0,0,1,0,0,0,1 @ F,0,0,1,0,0,0,1 @ F,0,0,1,0,0,0,1 @ F,0,0,1,0,0,0,1 @ F,0,0,1,0,0,0,1 @ F,0,0,1,0,0,0,1 @ F,0,0,1,0,0,0,1 @ F,0,0,1,0,0,0,1 @ F,0,0,1,0,0,0,1 @ F,0,0,1,0,0,0,1 @ F,0,0,1,0,0,0,1 @ F,0,0,1,0,0,0,1 @ F,0,0,1,0,0,0,1 @ F,0,0,1,0,0,0,1 @ F,0,0,1,0,0,0,1 @ F,0,0,1,0,0,0,1 @ F,0,0,1,0,0,0,1 @ F,0,0,1,0,0,0,1 @ F,0,0,1,0,0,0,1 @ F,0,0,1,0,0,0,1 @ F,0,0,1,0,0,0,1 @ F,0,0,1,0,0,0,1 @ F,0,0,1,0,0,0,1 @ F,0,0,1,0,0,0,1 @ F,0,0,1,0,0,0,1 @ F,0,0,1,0,0,0,1 @ F,0,0,1,0,0,0,1 @ F,0,0,1,0,0,0,1 @ F,0,0,1,0,0,0,1 @ F,0,0,1,0,0,0,1 @ F,0,0,1,0,0,0,1 @ F,0,0,1,0,0,0,1 @ F,0,0,1,0,0,0,1 @ F,0,0,1,0,0,0,1 @ F,0,0,1,0,0,0,1 @ F,0,0,1,0,0,0,1 @ F,0,0,1,0,0,0,1 @ F,0,0,1,0,0,0,1 @ F,0,0,1,0,0,0,1 @ F,0,0,1,0,0,0,1 @ F,0,0,1,0,0,0,1 @ F,0,0,1,0,0,0,1 @ F,0,0,1,0,0,0,1 @ F,0,0,1,0,0,0,1 @ F,0,0,1,0,0,0,1 @ F,0,0,1,0,0,0,1 @ F,0,0,1,0,0,0,1 @ F,0,0,1,0,0,0,1 @ F,0,0,1,0,0,0,1 @ F,0,0,1,0,0,0,1 @ F,0,0,1,0,0,0,1 @ F,0,0,1,0,0,0,1 @ F,0,0,1,0,0,0,1 @ F,0,0,1,0,0,0,1 @ F,0,0,1,0,0,0,1 @ F,0,0,1,0,0,0,1 @ F,0,0,1,0,0,0,1 @ F,0,0,1,0,0,0,1 @ F,0,0,1,0,0,0,1 @ F,0,0,1,0,0,0,1 @ F,0,0,1,0,0,0,1 @ F,0,0,1,0,0,0,1 @ F,0,0,1,0,0,0,1 @ F,0,0,1,0,0,0,1 @ F,0,0,1,0,0,0,1 @ F,0,0,1,0,0,0,1 @ F,0,0,1,0,0,0,1 @ F,0,0,1,0,0,0,1 @ F,0,0,1,0,0,0,1 @ F,0,0,1,0,0,0,1 @ F,0,0,1,0,0,0,1 @ F,0,0,1,0,0,0,1 @ F,0,0,1,0,0,0,1 @ F,0,0,1,0,0,0,1"
       radius="0"
       unit="px"
       method="auto"
       mode="F"
       chamfer_steps="1"
       flexible="false"
       use_knot_distance="true"
       apply_no_radius="true"
       apply_with_radius="true"
       only_selected="false"
       hide_knots="false" />
    <inkscape:path-effect
       effect="fillet_chamfer"
       id="path-effect69"
       is_visible="true"
       lpeversion="1"
       nodesatellites_param="F,0,0,1,0,0,0,1 @ F,0,0,1,0,0,0,1 @ F,0,0,1,0,0,0,1 @ F,0,0,1,0,0,0,1 @ F,0,0,1,0,0,0,1 @ F,0,0,1,0,0,0,1 @ F,0,0,1,0,0,0,1 @ F,0,0,1,0,0,0,1 @ F,0,0,1,0,0,0,1 @ F,0,0,1,0,0,0,1 @ F,0,0,1,0,0,0,1 @ F,0,0,1,0,0,0,1 @ F,0,0,1,0,0,0,1 @ F,0,0,1,0,0,0,1 @ F,0,0,1,0,0,0,1 @ F,0,0,1,0,0,0,1 @ F,0,0,1,0,0,0,1 @ F,0,0,1,0,0,0,1 @ F,0,0,1,0,0,0,1 @ F,0,0,1,0,0,0,1 @ F,0,0,1,0,0,0,1 @ F,0,0,1,0,0,0,1 @ F,0,0,1,0,0,0,1 @ F,0,0,1,0,0,0,1 @ F,0,0,1,0,0,0,1 @ F,0,0,1,0,0,0,1 @ F,0,0,1,0,0,0,1 @ F,0,0,1,0,0,0,1 @ F,0,0,1,0,0,0,1 @ F,0,0,1,0,0,0,1 @ F,0,0,1,0,0,0,1 @ F,0,0,1,0,0,0,1 @ F,0,0,1,0,0,0,1 @ F,0,0,1,0,0,0,1 @ F,0,0,1,0,0,0,1 @ F,0,0,1,0,0,0,1 @ F,0,0,1,0,0,0,1 @ F,0,0,1,0,0,0,1 @ F,0,0,1,0,0,0,1 @ F,0,0,1,0,0,0,1 @ F,0,0,1,0,0,0,1 @ F,0,0,1,0,0,0,1 @ F,0,0,1,0,0,0,1 @ F,0,0,1,0,0,0,1 @ F,0,0,1,0,0,0,1 @ F,0,0,1,0,0,0,1 @ F,0,0,1,0,0,0,1 @ F,0,0,1,0,0,0,1 @ F,0,0,1,0,0,0,1 @ F,0,0,1,0,0,0,1 @ F,0,0,1,0,0,0,1 @ F,0,0,1,0,0,0,1 @ F,0,0,1,0,0,0,1 @ F,0,0,1,0,0,0,1 @ F,0,0,1,0,0,0,1 @ F,0,0,1,0,0,0,1 @ F,0,0,1,0,0,0,1 @ F,0,0,1,0,0,0,1 @ F,0,0,1,0,0,0,1 @ F,0,0,1,0,0,0,1 @ F,0,0,1,0,0,0,1 @ F,0,0,1,0,0,0,1 @ F,0,0,1,0,0,0,1 @ F,0,0,1,0,0,0,1 @ F,0,0,1,0,0,0,1 @ F,0,0,1,0,0,0,1 @ F,0,0,1,0,0,0,1 @ F,0,0,1,0,0,0,1 @ F,0,0,1,0,0,0,1 @ F,0,0,1,0,0,0,1 @ F,0,0,1,0,0,0,1 @ F,0,0,1,0,0,0,1 @ F,0,0,1,0,0,0,1 @ F,0,0,1,0,0,0,1 @ F,0,0,1,0,0,0,1 @ F,0,0,1,0,0,0,1 @ F,0,0,1,0,0,0,1 @ F,0,0,1,0,0,0,1 @ F,0,0,1,0,0,0,1 @ F,0,0,1,0,0,0,1 @ F,0,0,1,0,0,0,1 @ F,0,0,1,0,0,0,1"
       radius="0"
       unit="px"
       method="auto"
       mode="F"
       chamfer_steps="1"
       flexible="false"
       use_knot_distance="true"
       apply_no_radius="true"
       apply_with_radius="true"
       only_selected="false"
       hide_knots="false" />
    <clipPath
       id="SVGID_4_">
      <rect
         y="0"
         x="0"
         id="use147"
         width="800"
         height="800" />
    </clipPath>
  </defs>
  <g
     inkscape:label="Layer 1"
     inkscape:groupmode="layer"
     id="layer1"
     style="display:inline">
    <path
       id="path52"
       style="font-size:30.9285px;font-family:'Tw Cen MT';-inkscape-font-specification:'Tw Cen MT';fill:#5a2ca0;fill-opacity:1;stroke:none;stroke-width:2.58143;stroke-linecap:round;stroke-opacity:1"
       d="m 74.423365,14.044621 c -0.395162,0 -0.77774,0.04119 -1.147733,0.12299 -0.369994,0.0818 -0.727463,0.204333 -1.072286,0.367936 -0.344825,0.163603 -0.677184,0.367995 -0.996839,0.613399 -0.319653,0.245404 -0.626389,0.531658 -0.920874,0.858862 -0.291967,0.324689 -0.547385,0.663068 -0.766361,1.015442 -0.218976,0.352375 -0.401786,0.718581 -0.54777,1.098641 -0.145984,0.380062 -0.255156,0.774093 -0.328146,1.18184 -0.07299,0.407749 -0.109554,0.829605 -0.109554,1.265039 0,0.460605 0.03616,0.903639 0.108521,1.329635 0.07236,0.425996 0.180836,0.834894 0.325561,1.226282 0.144726,0.391387 0.325515,0.765632 0.542603,1.122412 0.217088,0.356779 0.470709,0.695854 0.76016,1.018026 0.291968,0.32217 0.598298,0.604314 0.919841,0.845943 0.321541,0.241627 0.658125,0.443011 1.00924,0.604097 0.351117,0.161086 0.716917,0.281712 1.097608,0.362252 0.38069,0.08054 0.776225,0.120923 1.186491,0.120923 0.236593,0 0.468567,-0.01451 0.695564,-0.04393 0.226999,-0.02942 0.449225,-0.07397 0.666626,-0.132809 0.217403,-0.05883 0.429881,-0.132408 0.637688,-0.220658 0.207806,-0.08825 0.410537,-0.19084 0.608748,-0.308508 0.198211,-0.117668 0.391712,-0.250307 0.580326,-0.397392 0.188615,-0.147085 0.372369,-0.30874 0.551388,-0.485242 0.179019,-0.176502 0.353543,-0.367689 0.522965,-0.573608 0.169424,-0.205919 0.3342,-0.426639 0.494027,-0.661975 v 2.476851 h 2.62723 V 14.391886 h -2.62723 v 2.537313 C 79.120345,16.715257 78.987055,16.511157 78.8417,16.31735 78.696345,16.123544 78.538756,15.94015 78.368861,15.766479 78.198966,15.59281 78.01656,15.429088 77.822124,15.275553 77.627689,15.12202 77.420983,14.978488 77.202007,14.845089 76.983031,14.71169 76.761166,14.594772 76.535898,14.494722 c -0.225269,-0.100048 -0.453669,-0.183414 -0.68523,-0.250113 -0.231559,-0.0667 -0.466497,-0.116512 -0.704349,-0.149862 -0.237854,-0.03335 -0.478808,-0.05013 -0.722954,-0.05013 z m 1.011825,2.476851 c 0.284417,0 0.558925,0.02551 0.823205,0.07648 0.264282,0.05097 0.518599,0.127507 0.762745,0.229444 0.244144,0.101937 0.478272,0.228984 0.702282,0.381888 0.22401,0.152906 0.437947,0.331495 0.641822,0.535368 0.203873,0.201358 0.381945,0.412981 0.534851,0.635104 0.152904,0.222121 0.280468,0.454744 0.382405,0.697632 0.101937,0.242886 0.178475,0.495991 0.229444,0.759643 0.05097,0.263652 0.07648,0.537755 0.07648,0.822172 0,0.2819 -0.02551,0.554499 -0.07648,0.817521 -0.05097,0.263023 -0.127507,0.516533 -0.229444,0.760677 -0.101937,0.244146 -0.229501,0.479082 -0.382405,0.70435 -0.152906,0.225269 -0.330978,0.440598 -0.534851,0.646989 -0.203875,0.203874 -0.417812,0.382462 -0.641822,0.535368 -0.22401,0.152906 -0.458138,0.280469 -0.702282,0.382405 -0.244146,0.101938 -0.498463,0.178475 -0.762745,0.229444 -0.26428,0.05097 -0.538788,0.07648 -0.823205,0.07648 -0.2152,0 -0.424652,-0.01435 -0.627869,-0.04341 -0.06774,-0.0097 -0.134636,-0.02121 -0.201021,-0.03411 -0.26554,-0.0516 -0.520149,-0.128831 -0.764295,-0.232027 -0.244144,-0.103195 -0.477464,-0.232263 -0.700215,-0.387056 -0.222752,-0.154794 -0.43478,-0.335695 -0.636137,-0.542086 -0.201357,-0.206391 -0.377632,-0.423742 -0.52865,-0.652157 -0.151018,-0.228413 -0.277076,-0.467864 -0.377755,-0.718302 -0.02511,-0.06246 -0.04883,-0.125813 -0.0708,-0.189653 v -5.16e-4 c -0.06602,-0.191986 -0.117792,-0.389934 -0.155547,-0.594279 -0.05034,-0.272462 -0.07545,-0.555593 -0.07545,-0.850078 0,-0.06796 0.0014,-0.135195 0.0047,-0.202055 0.0097,-0.200578 0.03417,-0.396383 0.07286,-0.587044 0.0516,-0.254213 0.128831,-0.499794 0.232027,-0.736389 0.103195,-0.236595 0.232263,-0.464187 0.387056,-0.683162 0.154794,-0.218976 0.335178,-0.429096 0.541569,-0.630453 0.206391,-0.201357 0.421429,-0.377632 0.645439,-0.52865 0.22401,-0.151018 0.457037,-0.277077 0.698665,-0.377754 0.241629,-0.100679 0.492128,-0.176004 0.751376,-0.226343 0.259246,-0.05034 0.527219,-0.07545 0.804085,-0.07545 z" />
    <path
       id="path51"
       style="font-size:30.9285px;font-family:'Tw Cen MT';-inkscape-font-specification:'Tw Cen MT';fill:#5a2ca0;fill-opacity:1;stroke:none;stroke-width:2.58143;stroke-linecap:round;stroke-opacity:1"
       d="m 104.68768,14.044621 c -0.45557,0 -0.89421,0.04079 -1.31517,0.121956 -0.21048,0.04059 -0.41622,0.09105 -0.61805,0.151929 -0.20183,0.06088 -0.39955,0.132254 -0.59273,0.213424 -0.19317,0.08117 -0.38185,0.172419 -0.56637,0.273885 -0.18453,0.101465 -0.36518,0.213105 -0.54106,0.334863 -0.35175,0.243516 -0.6859,0.527457 -1.00304,0.852144 -0.314621,0.322172 -0.589826,0.659046 -0.825791,1.010791 -0.235966,0.351746 -0.432835,0.718355 -0.590145,1.099675 -0.15731,0.381319 -0.275324,0.777663 -0.353983,1.188558 -0.07865,0.410893 -0.117823,0.836456 -0.117823,1.276924 0,0.470673 0.03876,0.922151 0.116789,1.35444 0.07803,0.432287 0.195348,0.845296 0.3514,1.2392 0.156052,0.393906 0.350899,0.768442 0.584977,1.123963 0.234078,0.355521 0.507484,0.692103 0.819586,1.009241 0.31211,0.317136 0.64285,0.594654 0.99271,0.832507 0.17493,0.118927 0.35462,0.228002 0.53899,0.327112 0.18437,0.09911 0.3736,0.187887 0.56741,0.267167 0.38761,0.158569 0.79419,0.277804 1.21956,0.357084 0.42537,0.07929 0.86962,0.118856 1.33274,0.118856 0.30203,0 0.59637,-0.01431 0.88315,-0.04341 0.28677,-0.0291 0.56564,-0.07306 0.83716,-0.131258 0.2715,-0.05821 0.53542,-0.130765 0.79168,-0.218075 0.25626,-0.08731 0.50521,-0.189515 0.74621,-0.305925 0.241,-0.116408 0.47396,-0.247229 0.69969,-0.39274 0.22575,-0.145512 0.44426,-0.305461 0.65475,-0.480074 0.21047,-0.174615 0.413,-0.363691 0.60823,-0.567408 0.19522,-0.203716 0.38279,-0.421921 0.56275,-0.65474 l -1.91771,-1.450041 c -0.2517,0.309587 -0.51857,0.58068 -0.80047,0.812871 -0.2819,0.232189 -0.5788,0.425532 -0.8909,0.580326 -0.3121,0.154793 -0.63954,0.270899 -0.98185,0.348299 -0.34231,0.07739 -0.69978,0.116272 -1.07229,0.116272 -0.24163,0 -0.47876,-0.01828 -0.71158,-0.05478 -0.23282,-0.0365 -0.46122,-0.09134 -0.68523,-0.164331 -0.22401,-0.07299 -0.44368,-0.164397 -0.65888,-0.273885 -0.2152,-0.109488 -0.42561,-0.236939 -0.632,-0.382923 -0.20387,-0.1485 -0.38969,-0.318757 -0.55707,-0.510046 -0.16738,-0.191289 -0.31664,-0.403609 -0.44752,-0.637687 -0.13089,-0.234078 -0.24358,-0.489495 -0.33797,-0.766362 -0.0944,-0.276865 -0.17052,-0.575382 -0.22841,-0.895035 h 10.63192 c 0.005,-0.523529 -0.0309,-1.022619 -0.10697,-1.497067 -0.0381,-0.237223 -0.0858,-0.468027 -0.14418,-0.692981 -0.0584,-0.224952 -0.12707,-0.444124 -0.20567,-0.656807 -0.0787,-0.212684 -0.16775,-0.419187 -0.26665,-0.619601 -0.099,-0.200412 -0.20787,-0.394767 -0.32711,-0.58291 -0.11925,-0.188142 -0.24856,-0.36983 -0.38809,-0.545703 -0.13954,-0.175873 -0.28925,-0.345928 -0.44907,-0.509529 -0.31966,-0.329723 -0.65543,-0.618289 -1.00718,-0.865581 -0.17587,-0.123646 -0.3556,-0.236476 -0.5395,-0.339514 -0.18389,-0.103038 -0.37187,-0.196106 -0.56379,-0.278536 -0.19192,-0.08243 -0.38813,-0.154704 -0.58808,-0.216524 -0.19994,-0.06182 -0.40388,-0.113293 -0.61185,-0.154513 -0.41591,-0.08243 -0.8475,-0.123506 -1.29552,-0.123506 z m 0,2.41639 c 0.20639,0 0.40615,0.01305 0.59996,0.03979 0.19381,0.02674 0.38154,0.06692 0.56276,0.120406 0.18122,0.05349 0.35588,0.120793 0.52451,0.201021 0.16864,0.08023 0.33126,0.173632 0.48731,0.280603 0.15605,0.106971 0.3056,0.227505 0.44907,0.361218 0.14347,0.133714 0.28098,0.280344 0.41186,0.4408 0.13088,0.160457 0.25532,0.334733 0.37362,0.521932 0.1183,0.1872 0.23019,0.387572 0.3359,0.601514 h -7.61143 c 0.0969,-0.213942 0.20176,-0.414314 0.31471,-0.601514 0.11295,-0.187199 0.23429,-0.361475 0.36329,-0.521932 0.129,-0.160456 0.26579,-0.307086 0.41083,-0.4408 0.14504,-0.133713 0.29832,-0.254247 0.4594,-0.361218 0.16109,-0.106971 0.32982,-0.200375 0.50695,-0.280603 0.17713,-0.08023 0.36234,-0.147536 0.55552,-0.201021 0.19318,-0.05349 0.39436,-0.09366 0.60358,-0.120406 0.20922,-0.02674 0.42689,-0.03979 0.65216,-0.03979 z" />
    <path
       d="m 84.526625,14.391886 6.267317,12.927377 6.282304,-12.927377 h -2.778642 l -3.458703,7.203695 -3.563607,-7.203695 z"
       style="font-size:30.9285px;font-family:'Tw Cen MT';-inkscape-font-specification:'Tw Cen MT';fill:#5a2ca0;fill-opacity:1;stroke:none;stroke-width:2.58143;stroke-linecap:round;stroke-opacity:1"
       id="path50" />
    <path
       d="m 84.526625,14.391886 h 2.748669 l 3.563607,7.203695 3.458703,-7.203695 h 2.778642 l -6.282304,12.927377 z"
       style="font-size:30.9285px;font-family:'Tw Cen MT';-inkscape-font-specification:'Tw Cen MT';fill:#5a2ca0;fill-opacity:1;stroke:none;stroke-width:2.58143;stroke-linecap:round;stroke-opacity:1"
       id="path49" />
    <path
       d="m 37.016346,14.391886 6.282304,9.393225 -4.10776,8.910051 h 2.74867 l 8.411373,-18.303276 h -2.718181 l -3.125907,6.765479 -4.515487,-6.765479 z"
       style="font-size:30.9285px;font-family:'Tw Cen MT';-inkscape-font-specification:'Tw Cen MT';fill:#5a2ca0;fill-opacity:1;stroke:none;stroke-width:2.58143;stroke-linecap:round;stroke-opacity:1"
       id="path48" />
    <path
       d="m 37.016346,14.391886 h 2.975012 l 4.515487,6.765479 3.125907,-6.765479 h 2.718181 L 41.93956,32.695162 h -2.74867 l 4.10776,-8.910051 z"
       style="font-size:30.9285px;font-family:'Tw Cen MT';-inkscape-font-specification:'Tw Cen MT';fill:#5a2ca0;fill-opacity:1;stroke:none;stroke-width:2.58143;stroke-linecap:round;stroke-opacity:1"
       id="path47" />
    <path
       d="m 22.911264,14.391886 v 12.459188 h 2.597258 V 14.391886 Z"
       style="font-size:30.9285px;font-family:'Tw Cen MT';-inkscape-font-specification:'Tw Cen MT';fill:#5a2ca0;fill-opacity:1;stroke:none;stroke-width:2.58143;stroke-linecap:round;stroke-opacity:1"
       id="path46" />
    <path
       d="m 22.911264,14.391886 h 2.597258 v 12.459188 h -2.597258 z"
       style="font-size:30.9285px;font-family:'Tw Cen MT';-inkscape-font-specification:'Tw Cen MT';fill:#5a2ca0;fill-opacity:1;stroke:none;stroke-width:2.58143;stroke-linecap:round;stroke-opacity:1"
       id="path45" />
    <path
       d="m 128.06506,14.044621 c -0.29448,0 -0.57651,0.02169 -0.84646,0.06511 -0.26994,0.04342 -0.52767,0.108502 -0.77308,0.195337 -0.2454,0.08683 -0.47883,0.195309 -0.6997,0.325562 -0.22086,0.130252 -0.42948,0.282632 -0.6258,0.456302 -0.1938,0.171154 -0.36314,0.353043 -0.50849,0.54622 -0.14536,0.193177 -0.26639,0.397165 -0.36329,0.612366 -0.0969,0.215201 -0.16962,0.441804 -0.21807,0.679028 -0.0485,0.237224 -0.0729,0.48541 -0.0729,0.744658 0,0.208908 0.0172,0.409482 0.0512,0.60203 0.034,0.192548 0.085,0.37675 0.15296,0.552938 0.068,0.176188 0.15283,0.344535 0.25477,0.504362 0.10194,0.159827 0.22065,0.311286 0.35657,0.454753 0.13843,0.14095 0.30446,0.281875 0.49764,0.422196 0.19318,0.140321 0.41354,0.279921 0.66146,0.419613 0.24792,0.139691 0.52312,0.279 0.82579,0.418062 0.30266,0.139062 0.63271,0.278079 0.99012,0.416512 0.35741,0.138433 0.67039,0.281155 0.93844,0.428398 0.26806,0.147242 0.49154,0.299217 0.67025,0.455269 0.1787,0.156052 0.31269,0.316246 0.40204,0.481108 0.0447,0.08243 0.0779,0.165997 0.10025,0.25063 0.0223,0.08463 0.0336,0.170514 0.0336,0.257349 0,0.09816 -0.013,0.193272 -0.0388,0.285771 -0.0258,0.0925 -0.0642,0.182399 -0.11575,0.269234 -0.0516,0.08684 -0.11639,0.170492 -0.19379,0.251664 -0.0774,0.08117 -0.16759,0.159619 -0.27078,0.235128 -0.20136,0.145984 -0.42022,0.25567 -0.65681,0.328662 -0.2366,0.07299 -0.49091,0.109554 -0.76275,0.109554 -0.19632,0 -0.39087,-0.0221 -0.58342,-0.06615 -0.19255,-0.04405 -0.38329,-0.110344 -0.57206,-0.198437 -0.18877,-0.08809 -0.37569,-0.198072 -0.56069,-0.330213 -0.185,-0.13214 -0.3681,-0.286316 -0.54932,-0.462504 l -2.06861,0.996839 c 0.14095,0.203874 0.28684,0.394701 0.4377,0.573091 0.15086,0.17839 0.30639,0.344222 0.46716,0.497127 0.16077,0.152906 0.32644,0.293225 0.49712,0.420647 0.17069,0.127421 0.34651,0.241711 0.5271,0.343648 0.1806,0.101937 0.36606,0.191231 0.55656,0.267684 0.1905,0.07645 0.38611,0.140234 0.58653,0.191203 0.20041,0.05097 0.40566,0.08924 0.61598,0.114721 0.21032,0.02548 0.42572,0.03824 0.64595,0.03824 0.28946,0 0.56917,-0.02441 0.83975,-0.07286 0.27057,-0.04845 0.53171,-0.121171 0.78341,-0.218074 0.2517,-0.0969 0.49427,-0.217931 0.72709,-0.363286 0.23282,-0.145355 0.4563,-0.31469 0.67024,-0.508496 0.21394,-0.196323 0.40075,-0.400716 0.56121,-0.613399 0.16045,-0.212684 0.29455,-0.433965 0.40152,-0.663009 0.10698,-0.229044 0.18681,-0.46618 0.2403,-0.711584 0.0535,-0.245404 0.0806,-0.498913 0.0806,-0.760677 0,-0.22401 -0.0187,-0.439856 -0.0558,-0.647506 -0.0371,-0.20765 -0.0927,-0.407124 -0.16691,-0.598413 -0.0743,-0.191289 -0.16716,-0.374391 -0.27854,-0.549321 -0.11137,-0.174929 -0.24165,-0.341659 -0.39015,-0.500227 -0.1485,-0.158569 -0.32044,-0.313441 -0.51677,-0.465088 -0.19632,-0.151647 -0.41679,-0.300209 -0.66094,-0.444934 -0.24415,-0.144726 -0.51212,-0.285943 -0.80408,-0.423747 -0.29197,-0.137804 -0.60796,-0.272194 -0.94775,-0.403076 -0.33727,-0.133399 -0.63226,-0.26779 -0.88522,-0.403077 -0.25295,-0.135286 -0.46388,-0.271585 -0.63252,-0.40876 -0.16863,-0.137175 -0.29498,-0.274866 -0.3793,-0.413928 -0.0843,-0.139063 -0.12661,-0.27918 -0.12661,-0.42013 0,-0.196323 0.0336,-0.367971 0.10025,-0.515214 0.0667,-0.147242 0.16633,-0.270291 0.29973,-0.368453 0.13339,-0.09816 0.30064,-0.171577 0.50074,-0.220658 0.2001,-0.04908 0.43342,-0.0739 0.70022,-0.0739 0.22652,0 0.43774,0.02181 0.63407,0.0646 0.19632,0.04279 0.37751,0.10666 0.54363,0.192237 0.33224,0.161085 0.72517,0.402848 1.17822,0.72502 l 1.75184,-1.540475 c -0.36496,-0.304552 -0.72133,-0.571019 -1.06867,-0.799434 -0.34734,-0.228415 -0.68572,-0.418748 -1.01544,-0.571025 -0.32973,-0.152276 -0.65063,-0.266476 -0.96274,-0.342614 -0.3121,-0.07614 -0.61553,-0.114205 -0.91002,-0.114205 z"
       style="font-size:30.9285px;font-family:'Tw Cen MT';-inkscape-font-specification:'Tw Cen MT';fill:#5a2ca0;fill-opacity:1;stroke:none;stroke-width:2.58143;stroke-linecap:round;stroke-opacity:1"
       id="path44" />
    <path
       d="m 128.06506,14.044621 c 0.29449,0 0.59792,0.03807 0.91002,0.114205 0.31211,0.07614 0.63301,0.190338 0.96274,0.342614 0.32972,0.152277 0.6681,0.34261 1.01544,0.571025 0.34734,0.228415 0.70371,0.494882 1.06867,0.799434 l -1.75184,1.540475 c -0.45305,-0.322172 -0.84598,-0.563935 -1.17822,-0.72502 -0.16612,-0.08558 -0.34731,-0.149448 -0.54363,-0.192237 -0.19633,-0.04279 -0.40755,-0.0646 -0.63407,-0.0646 -0.2668,0 -0.50012,0.02482 -0.70022,0.0739 -0.2001,0.04908 -0.36735,0.122497 -0.50074,0.220658 -0.1334,0.09816 -0.23303,0.221211 -0.29973,0.368453 -0.0667,0.147243 -0.10025,0.318891 -0.10025,0.515214 0,0.14095 0.0423,0.281067 0.12661,0.42013 0.0843,0.139062 0.21067,0.276753 0.3793,0.413928 0.16864,0.137175 0.37957,0.273474 0.63252,0.40876 0.25296,0.135287 0.54795,0.269678 0.88522,0.403077 0.33979,0.130882 0.65578,0.265272 0.94775,0.403076 0.29196,0.137804 0.55993,0.279021 0.80408,0.423747 0.24415,0.144725 0.46462,0.293287 0.66094,0.444934 0.19633,0.151647 0.36827,0.306519 0.51677,0.465088 0.1485,0.158568 0.27878,0.325298 0.39015,0.500227 0.11138,0.17493 0.20429,0.358032 0.27854,0.549321 0.0743,0.191289 0.12979,0.390763 0.16691,0.598413 0.0371,0.20765 0.0558,0.423496 0.0558,0.647506 0,0.261764 -0.0271,0.515273 -0.0806,0.760677 -0.0535,0.245404 -0.13332,0.48254 -0.2403,0.711584 -0.10697,0.229044 -0.24107,0.450325 -0.40152,0.663009 -0.16046,0.212683 -0.34727,0.417076 -0.56121,0.613399 -0.21394,0.193806 -0.43742,0.363141 -0.67024,0.508496 -0.23282,0.145355 -0.47539,0.266382 -0.72709,0.363286 -0.2517,0.0969 -0.51284,0.169622 -0.78341,0.218074 -0.27058,0.04845 -0.55029,0.07286 -0.83975,0.07286 -0.22023,0 -0.43563,-0.01276 -0.64595,-0.03824 -0.21032,-0.02548 -0.41557,-0.06375 -0.61598,-0.114721 -0.20042,-0.05097 -0.39603,-0.11475 -0.58653,-0.191203 -0.1905,-0.07645 -0.37596,-0.165747 -0.55656,-0.267684 -0.18059,-0.101937 -0.35641,-0.216227 -0.5271,-0.343648 -0.17068,-0.127422 -0.33635,-0.267741 -0.49712,-0.420647 -0.16077,-0.152905 -0.3163,-0.318737 -0.46716,-0.497127 -0.15086,-0.17839 -0.29675,-0.369217 -0.4377,-0.573091 l 2.06861,-0.996839 c 0.18122,0.176188 0.36432,0.330364 0.54932,0.462504 0.185,0.132141 0.37192,0.242119 0.56069,0.330213 0.18877,0.08809 0.37951,0.15439 0.57206,0.198437 0.19255,0.04405 0.3871,0.06615 0.58342,0.06615 0.27184,0 0.52615,-0.03656 0.76275,-0.109554 0.23659,-0.07299 0.45545,-0.182678 0.65681,-0.328662 0.10319,-0.07551 0.19338,-0.153956 0.27078,-0.235128 0.0774,-0.08117 0.14219,-0.164829 0.19379,-0.251664 0.0516,-0.08684 0.09,-0.176736 0.11575,-0.269234 0.0258,-0.0925 0.0388,-0.187609 0.0388,-0.285771 0,-0.08684 -0.0113,-0.172716 -0.0336,-0.257349 -0.0223,-0.08463 -0.0556,-0.1682 -0.10025,-0.25063 -0.0893,-0.164862 -0.22334,-0.325056 -0.40204,-0.481108 -0.17871,-0.156052 -0.40219,-0.308027 -0.67025,-0.455269 -0.26805,-0.147243 -0.58103,-0.289965 -0.93844,-0.428398 -0.35741,-0.138433 -0.68746,-0.27745 -0.99012,-0.416512 -0.30267,-0.139062 -0.57787,-0.278371 -0.82579,-0.418062 -0.24792,-0.139692 -0.46828,-0.279292 -0.66146,-0.419613 -0.19318,-0.140321 -0.35921,-0.281246 -0.49764,-0.422196 -0.13592,-0.143467 -0.25463,-0.294926 -0.35657,-0.454753 -0.10194,-0.159827 -0.18681,-0.328174 -0.25477,-0.504362 -0.0679,-0.176188 -0.11898,-0.36039 -0.15296,-0.552938 -0.034,-0.192548 -0.0512,-0.393122 -0.0512,-0.60203 0,-0.259248 0.0244,-0.507434 0.0729,-0.744658 0.0485,-0.237224 0.12117,-0.463827 0.21807,-0.679028 0.0969,-0.215201 0.21793,-0.419189 0.36329,-0.612366 0.14535,-0.193177 0.31469,-0.375066 0.50849,-0.54622 0.19632,-0.17367 0.40494,-0.32605 0.6258,-0.456302 0.22087,-0.130253 0.4543,-0.238727 0.6997,-0.325562 0.24541,-0.08684 0.50314,-0.151919 0.77308,-0.195337 0.26995,-0.04342 0.55198,-0.06511 0.84646,-0.06511 z"
       style="font-size:30.9285px;font-family:'Tw Cen MT';-inkscape-font-specification:'Tw Cen MT';fill:#5a2ca0;fill-opacity:1;stroke:none;stroke-width:2.58143;stroke-linecap:round;stroke-opacity:1"
       id="path43" />
    <path
       d="m 121.01226,14.044621 c -0.22401,0 -0.43754,0.01446 -0.64079,0.04341 -0.20324,0.02895 -0.39578,0.07233 -0.57826,0.130225 -0.18248,0.05789 -0.35453,0.130205 -0.51624,0.217041 -0.16172,0.08684 -0.31329,0.188077 -0.45424,0.303857 -0.13843,0.113263 -0.27774,0.244644 -0.41806,0.393774 -0.14032,0.149131 -0.28154,0.316265 -0.42375,0.501262 -0.28441,0.369994 -0.57258,0.811523 -0.86454,1.324984 v -2.567286 h -2.56729 v 12.459188 h 2.62775 v -6.901387 c 0,-0.231561 0.0182,-0.453538 0.0553,-0.665593 0.0371,-0.212054 0.0932,-0.41465 0.16743,-0.607198 0.0743,-0.192548 0.16716,-0.375245 0.27854,-0.548287 0.11137,-0.173041 0.24114,-0.336357 0.38964,-0.489892 0.15102,-0.156052 0.31092,-0.292239 0.47956,-0.409278 0.16863,-0.117039 0.34601,-0.214979 0.53226,-0.293005 0.18626,-0.07803 0.38111,-0.13617 0.58498,-0.175183 0.20387,-0.03901 0.41671,-0.05891 0.6382,-0.05891 0.16109,0 0.49345,0.05073 0.99684,0.151412 l 0.80047,-2.627747 c -0.47319,-0.120814 -0.83609,-0.181384 -1.08779,-0.181384 z"
       style="font-size:30.9285px;font-family:'Tw Cen MT';-inkscape-font-specification:'Tw Cen MT';fill:#5a2ca0;fill-opacity:1;stroke:none;stroke-width:2.58143;stroke-linecap:round;stroke-opacity:1"
       id="path42" />
    <path
       d="m 121.01226,14.044621 c 0.2517,0 0.6146,0.06057 1.08779,0.181384 l -0.80047,2.627747 c -0.50339,-0.100679 -0.83575,-0.151412 -0.99684,-0.151412 -0.22149,0 -0.43433,0.0199 -0.6382,0.05891 -0.20387,0.03901 -0.39872,0.09716 -0.58498,0.175183 -0.18625,0.07803 -0.36363,0.175966 -0.53226,0.293005 -0.16864,0.117039 -0.32854,0.253226 -0.47956,0.409278 -0.1485,0.153535 -0.27827,0.316851 -0.38964,0.489892 -0.11138,0.173042 -0.20429,0.355739 -0.27854,0.548287 -0.0743,0.192548 -0.1303,0.395144 -0.16743,0.607198 -0.0371,0.212055 -0.0553,0.434032 -0.0553,0.665593 v 6.901387 h -2.62775 V 14.391886 h 2.56729 v 2.567286 c 0.29196,-0.513461 0.58013,-0.95499 0.86454,-1.324984 0.14221,-0.184997 0.28343,-0.352131 0.42375,-0.501262 0.14032,-0.14913 0.27963,-0.280511 0.41806,-0.393774 0.14095,-0.11578 0.29252,-0.217022 0.45424,-0.303857 0.16171,-0.08684 0.33376,-0.159151 0.51624,-0.217041 0.18248,-0.05789 0.37502,-0.10128 0.57826,-0.130225 0.20325,-0.02895 0.41678,-0.04341 0.64079,-0.04341 z"
       style="font-size:30.9285px;font-family:'Tw Cen MT';-inkscape-font-specification:'Tw Cen MT';fill:#5a2ca0;fill-opacity:1;stroke:none;stroke-width:2.58143;stroke-linecap:round;stroke-opacity:1"
       id="path41" />
    <path
       d="m 30.28084,10.767818 v 3.594096 h -2.069124 v 2.431376 h 2.069124 v 10.057784 h 2.627747 V 16.79329 h 2.597257 v -2.401404 h -2.597257 v -3.624068 z"
       style="font-size:30.9285px;font-family:'Tw Cen MT';-inkscape-font-specification:'Tw Cen MT';fill:#5a2ca0;fill-opacity:1;stroke:none;stroke-width:2.58143;stroke-linecap:round;stroke-opacity:1"
       id="path36" />
    <path
       d="m 30.28084,10.767818 h 2.627747 v 3.624068 h 2.597257 V 16.79329 H 32.908587 V 26.851074 H 30.28084 V 16.79329 h -2.069124 v -2.431376 h 2.069124 z"
       style="font-size:30.9285px;font-family:'Tw Cen MT';-inkscape-font-specification:'Tw Cen MT';fill:#5a2ca0;fill-opacity:1;stroke:none;stroke-width:2.58143;stroke-linecap:round;stroke-opacity:1"
       id="path35" />
    <path
       d="m 24.209893,8.2909668 c -0.138433,0 -0.272015,0.012554 -0.401009,0.037724 -0.128995,0.02517 -0.253548,0.062832 -0.373104,0.1131714 -0.119556,0.050339 -0.234048,0.11311 -0.344165,0.188619 -0.110117,0.075509 -0.215581,0.1639047 -0.31626,0.2645833 -0.100679,0.098162 -0.189074,0.200908 -0.264583,0.3085083 -0.07551,0.1076003 -0.13828,0.2198914 -0.188619,0.3369303 -0.05034,0.1170389 -0.088,0.2388749 -0.113172,0.3653524 -0.02517,0.1264775 -0.03772,0.2578585 -0.03772,0.3937745 0,0.138433 0.01255,0.27161 0.03772,0.399975 0.02517,0.128366 0.06283,0.251706 0.113172,0.370004 0.05034,0.118297 0.11311,0.231801 0.188619,0.34003 0.07551,0.10823 0.163904,0.211381 0.264583,0.309542 0.100679,0.09816 0.206143,0.183728 0.31626,0.257349 0.110117,0.07362 0.224609,0.134887 0.344165,0.183968 0.119556,0.04908 0.244109,0.08605 0.373104,0.110588 0.128994,0.02454 0.262576,0.03669 0.401009,0.03669 0.135916,0 0.267297,-0.01215 0.393774,-0.03669 0.126478,-0.02454 0.248314,-0.06151 0.365353,-0.110588 0.117038,-0.04908 0.22933,-0.110347 0.33693,-0.183968 0.1076,-0.07362 0.210347,-0.159187 0.308508,-0.257349 0.100679,-0.09816 0.188558,-0.201312 0.264067,-0.309542 0.07551,-0.108229 0.138796,-0.221733 0.189136,-0.34003 0.05034,-0.118298 0.088,-0.241638 0.113171,-0.370004 0.02517,-0.128365 0.03772,-0.261542 0.03772,-0.399975 0,-0.135916 -0.01255,-0.267297 -0.03772,-0.3937745 C 26.155662,9.7793778 26.118,9.6575418 26.067661,9.5405029 26.017321,9.423464 25.954034,9.3111729 25.878525,9.2035726 25.803016,9.0959723 25.715137,8.9932259 25.614458,8.8950643 25.516297,8.7943857 25.41355,8.7059899 25.30595,8.630481 25.19835,8.554972 25.086058,8.4922013 24.96902,8.441862 24.851981,8.3915227 24.730145,8.3538602 24.603667,8.3286906 24.47719,8.3035209 24.345809,8.2909668 24.209893,8.2909668 Z"
       style="font-size:30.9285px;font-family:'Tw Cen MT';-inkscape-font-specification:'Tw Cen MT';fill:#5a2ca0;fill-opacity:1;stroke:none;stroke-width:2.58143;stroke-linecap:round;stroke-opacity:1"
       id="path34" />
    <path
       d="m 59.412395,6.9923381 c -0.395163,0 -0.775943,0.030431 -1.141532,0.091467 -0.365589,0.061036 -0.716117,0.1523291 -1.052132,0.2744019 -0.336015,0.1220728 -0.657325,0.274744 -0.963766,0.4578532 -0.30644,0.1831092 -0.598016,0.3966421 -0.874882,0.6407877 -0.276866,0.2416287 -0.518921,0.4963502 -0.72657,0.7637777 -0.20765,0.2674276 -0.380916,0.5475491 -0.519349,0.8407754 -0.138433,0.293227 -0.242392,0.599265 -0.311608,0.918291 -0.06922,0.319025 -0.10387,0.65098 -0.10387,0.995804 0,0.286934 0.02401,0.56526 0.07183,0.834575 0.04782,0.269315 0.119846,0.529651 0.215491,0.781347 0.100678,0.251697 0.228937,0.504914 0.384989,0.759127 0.156052,0.254214 0.339446,0.509631 0.550871,0.766362 0.211425,0.251696 0.441734,0.486924 0.690914,0.7059 0.24918,0.218976 0.517668,0.421459 0.804602,0.607715 0.291968,0.181221 0.645618,0.372768 1.060917,0.574125 0.415299,0.201357 0.89229,0.412577 1.430921,0.63407 0.543664,0.216459 1.013019,0.42166 1.408182,0.615466 0.395164,0.193806 0.71607,0.376616 0.962732,0.54777 0.246663,0.171154 0.473154,0.366001 0.679545,0.584977 0.206392,0.218976 0.392503,0.46184 0.558623,0.728638 0.166119,0.261764 0.29056,0.523717 0.37362,0.785482 0.08306,0.261764 0.12454,0.5232 0.12454,0.784965 0,0.218976 -0.01978,0.428803 -0.05943,0.628902 -0.03964,0.200099 -0.099,0.390837 -0.178284,0.572058 -0.07928,0.181222 -0.178213,0.35287 -0.29714,0.515214 -0.118926,0.162344 -0.257943,0.31542 -0.416512,0.458887 -0.158569,0.143467 -0.327207,0.268604 -0.505912,0.376204 -0.178705,0.107601 -0.367533,0.197501 -0.566374,0.269234 -0.19884,0.07173 -0.407342,0.125364 -0.626318,0.161231 -0.218976,0.03587 -0.448185,0.05374 -0.687297,0.05374 -0.246662,0 -0.485461,-0.01682 -0.716235,-0.05064 -0.230774,-0.03382 -0.453807,-0.08429 -0.668693,-0.151929 -0.214886,-0.06764 -0.421636,-0.152266 -0.620634,-0.253731 -0.198994,-0.101465 -0.389979,-0.21973 -0.573089,-0.355017 -0.183109,-0.135286 -0.358328,-0.287711 -0.525549,-0.456819 -0.167221,-0.169109 -0.326674,-0.355175 -0.478007,-0.558106 -0.151332,-0.20293 -0.294504,-0.422639 -0.429948,-0.659391 -0.135444,-0.236752 -0.26285,-0.49062 -0.382405,-0.761194 l -2.627747,0.740007 c 0.16612,0.440469 0.35003,0.853476 0.551388,1.239201 0.201357,0.385724 0.420212,0.744405 0.656807,1.075386 0.236595,0.330981 0.490912,0.634302 0.762744,0.910539 0.271832,0.276237 0.561094,0.525231 0.868164,0.746724 0.309587,0.218976 0.630897,0.41041 0.963766,0.574642 0.332868,0.164232 0.677378,0.30134 1.033528,0.410828 0.356151,0.109488 0.72386,0.191752 1.103292,0.246496 0.379433,0.05474 0.770341,0.08165 1.173055,0.08165 0.412782,0 0.810226,-0.03494 1.192175,-0.10542 0.38195,-0.07047 0.748558,-0.176343 1.099675,-0.317293 0.351117,-0.14095 0.68689,-0.317225 1.007174,-0.52865 0.320283,-0.211425 0.625221,-0.458106 0.914672,-0.740006 0.291968,-0.281901 0.547386,-0.578394 0.766362,-0.889869 0.218976,-0.311474 0.401269,-0.637702 0.547253,-0.978751 0.145984,-0.341049 0.25567,-0.697012 0.328662,-1.067635 0.07299,-0.370623 0.109555,-0.755805 0.109555,-1.156002 0,-0.342307 -0.02783,-0.675767 -0.0832,-1.000456 -0.05537,-0.324688 -0.138333,-0.640676 -0.24908,-0.947746 -0.105712,-0.307069 -0.240507,-0.606685 -0.40411,-0.898653 -0.163602,-0.291968 -0.356249,-0.576311 -0.577742,-0.853178 -0.221493,-0.276866 -0.474193,-0.54102 -0.75861,-0.792716 -0.284417,-0.251697 -0.600405,-0.490742 -0.947746,-0.717269 -0.342307,-0.231561 -0.75381,-0.471123 -1.23455,-0.717786 -0.48074,-0.246662 -1.030855,-0.500463 -1.650028,-0.762227 -0.619174,-0.266798 -1.147481,-0.522216 -1.585433,-0.766362 -0.437952,-0.244145 -0.785584,-0.477172 -1.042314,-0.698665 -0.128365,-0.113263 -0.240656,-0.230473 -0.33693,-0.351916 -0.09627,-0.121444 -0.17663,-0.247098 -0.240813,-0.376722 -0.06418,-0.129623 -0.112085,-0.263205 -0.144177,-0.401009 -0.03209,-0.137804 -0.04806,-0.27983 -0.04806,-0.425813 0,-0.168637 0.01828,-0.329236 0.05478,-0.482142 0.0365,-0.152905 0.09134,-0.297941 0.164331,-0.435115 0.07299,-0.137175 0.163881,-0.266647 0.273369,-0.38809 0.109488,-0.121444 0.237455,-0.235352 0.383439,-0.341065 0.148501,-0.108229 0.307999,-0.202531 0.478523,-0.283703 0.170525,-0.081172 0.352122,-0.1489739 0.54467,-0.2030886 0.192548,-0.054115 0.395727,-0.094899 0.610299,-0.1219564 0.214571,-0.027057 0.440366,-0.040308 0.676961,-0.040308 0.432918,0 0.814394,0.036562 1.144116,0.109554 0.164861,0.036496 0.316724,0.082199 0.455786,0.1369426 0.139063,0.054744 0.265008,0.1182114 0.378272,0.1912034 0.231561,0.14095 0.476041,0.319942 0.732772,0.536401 0.25673,0.216459 0.525802,0.470776 0.807702,0.762744 L 65.286972,9.7404907 C 65.108267,9.5089299 64.918338,9.2923877 64.716981,9.0904012 64.515624,8.8884147 64.302787,8.7010905 64.078777,8.5286784 63.854767,8.3562663 63.61954,8.1986768 63.372877,8.055839 63.126214,7.9130013 62.868079,7.7851466 62.598764,7.6718831 62.329449,7.5586197 62.061073,7.4591745 61.793645,7.3742269 61.526218,7.2892793 61.259751,7.2184685 60.994211,7.1618368 60.728671,7.105205 60.464113,7.0630286 60.200461,7.0347127 59.936809,7.0063969 59.67416,6.9923381 59.412395,6.9923381 Z"
       style="font-size:30.9285px;font-family:'Tw Cen MT';-inkscape-font-specification:'Tw Cen MT';fill:#5a2ca0;fill-opacity:1;stroke:none;stroke-width:2.58143;stroke-linecap:round;stroke-opacity:1"
       id="path33" />
  </g>
  <g
     inkscape:groupmode="layer"
     id="layer3"
     inkscape:label="Layer 3"
     style="display:inline">
    <path
       id="path151"
       clip-path="url(#SVGID_4_)"
       style="fill:#f0a100;fill-opacity:1"
       d="m 167.37098,649.64339 v 3.00807 h -4.57503 v 11.90899 H 162.359 v 4.17207 a 31.1499,24.340116 0 0 0 29.33768,16.33328 31.1499,24.340116 0 0 0 27.97895,-13.71757 v -5.08757 l -1.55827,-9.49318 -1.56026,9.49318 v 5.38651 l -0.53671,0.13452 v -17.04887 h -8.12054 v 3.4378 h -1.16321 v 6.89055 h -0.35914 l -0.58859,-2.78761 -0.75619,2.78761 h -2.04909 v -6.33751 h -1.54629 v 1.32281 h -4.41542 v -0.99211 h -2.09697 v 1.43491 h -1.54829 v -1.10234 h -1.65404 v 5.7415 c -0.812,0.032 -1.72034,0.0511 -1.94534,-0.0149 0.125,0.439 -0.0519,3.49572 -0.0519,3.49572 h -1.22307 v 3.74608 h -0.99362 v -5.95075 l -1.13129,-2.12621 -1.13528,2.55033 v 4.25241 h -0.83998 V 655.4428 h -5.83402 v 2.50736 h -0.64645 v 5.37716 h -2.09897 v -7.58558 h -3.72108 v -6.09835 z m -5.44096,3.97402 a 31.1499,24.340116 0 0 0 -1.38268,7.10914 31.1499,24.340116 0 0 0 1.38268,7.10728 z m 58.4978,15.26271 v 1.12849 a 31.1499,24.340116 0 0 0 0.53871,-1.12849 z"
       transform="matrix(0.25900142,0,0,0.27658573,-38.162559,-164.84837)" />
  </g>
  <g
     inkscape:groupmode="layer"
     id="layer4"
     inkscape:label="Layer 4">
    <path
       style="fill:none;stroke:#5a2ca0;stroke-width:2.858;stroke-linecap:square;stroke-dasharray:none;stroke-opacity:1"
       id="path1"
       sodipodi:type="arc"
       sodipodi:cx="10.846205"
       sodipodi:cy="17.418045"
       sodipodi:rx="8.5486927"
       sodipodi:ry="8.6021233"
       sodipodi:start="0.28516706"
       sodipodi:end="4.3130891"
       sodipodi:arc-type="arc"
       d="m 19.049656,19.837975 a 8.5486927,8.6021233 0 0 1 -8.69056,6.168217 8.5486927,8.6021233 0 0 1 -7.9366921,-7.12312 8.5486927,8.6021233 0 0 1 5.1002966,-9.3904505"
       sodipodi:open="true" />
  </g>
</svg>
